{"title":"Calvin Harris Ft. Ellie Goulding - I Need Your Love [Music Video","uid":8870246,"size":137573607,"categoryP":"video","categoryS":"music_videos","magnet":"?xt=urn:btih:0396724a13239f70e5561bae4072e5306c377d61&amp;dn=Calvin+Harris+Ft.+Ellie+Goulding+-+I+Need+Your+Love+%5BMusic+Video&amp;tr=udp%3A%2F%2Ftracker.openbittorrent.com%3A80&amp;tr=udp%3A%2F%2Fopen.demonii.com%3A1337&amp;tr=udp%3A%2F%2Ftracker.coppersurfer.tk%3A6969&amp;tr=udp%3A%2F%2Fexodus.desync.com%3A6969","seeders":14,"leechers":1,"uploader":"Sbyky","files":-1,"time":1378042393,"description":"[IMG]http://yuq.me/users/18/139/8sl6jPa45c.png[/IMG]\n\nGeneral\nComplete name                            : Calvin Harris Ft. Ellie Goulding - I Need Your Love [Music Video] 1080p [Sbyky].mp4\nFormat                                   : MPEG-4\nFormat profile                           : Base Media / Version 2\nCodec ID                                 : mp42\nFile size                                : 131 MiB\nDuration                                 : 3mn 46s\nOverall bit rate mode                    : Variable\nOverall bit rate                         : 4 851 Kbps\nEncoded date                             : UTC 2013-04-15 13:13:05\nTagged date                              : UTC 2013-04-15 13:13:05\n\nVideo\nID                                       : 1\nFormat                                   : AVC\nFormat/Info                              : Advanced Video Codec\nFormat profile                           : &lt;a class=&quot;__cf_email__&quot; href=&quot;/cdn-cgi/l/email-protection&quot; data-cfemail=&quot;a7efcec0cfe7eb938997&quot;&gt;[email&amp;#160;protected]&lt;/a&gt;&lt;script cf-hash='f9e31' type=&quot;text/javascript&quot;&gt;\n/* &lt;![CDATA[ */!function(){try{var t=&quot;currentScript&quot;in document?document.currentScript:function(){for(var t=document.getElementsByTagName(&quot;script&quot;),e=t.length;e--;)if(t[e].getAttribute(&quot;cf-hash&quot;))return t[e]}();if(t&amp;&amp;t.previousSibling){var e,r,n,i,c=t.previousSibling,a=c.getAttribute(&quot;data-cfemail&quot;);if(a){for(e=&quot;&quot;,r=parseInt(a.substr(0,2),16),n=2;a.length-n;n+=2)i=parseInt(a.substr(n,2),16)^r,e+=String.fromCharCode(i);e=document.createTextNode(e),c.parentNode.replaceChild(e,c)}}}catch(u){}}();/* ]]&gt; */&lt;/script&gt;\nFormat settings, CABAC                   : Yes\nFormat settings, ReFrames                : 1 frame\nCodec ID                                 : avc1\nCodec ID/Info                            : Advanced Video Coding\nDuration                                 : 3mn 46s\nBit rate                                 : 4 657 Kbps\nMaximum bit rate                         : 11.3 Mbps\nWidth                                    : 1 920 pixels\nHeight                                   : 1 080 pixels\nDisplay aspect ratio                     : 16:9\nFrame rate mode                          : Constant\nFrame rate                               : 25.000 fps\nColor space                              : YUV\nChroma subsampling                       : 4:2:0\nBit depth                                : 8 bits\nScan type                                : Progressive\nBits/(Pixel*Frame)                       : 0.090\nStream size                              : 126 MiB (96%)\nTagged date                              : UTC 2013-04-15 13:13:18\n\nAudio\nID                                       : 2\nFormat                                   : AAC\nFormat/Info                              : Advanced Audio Codec\nFormat profile                           : LC\nCodec ID                                 : 40\nDuration                                 : 3mn 46s\nBit rate mode                            : Variable\nBit rate                                 : 192 Kbps\nMaximum bit rate                         : 202 Kbps\nChannel(s)                               : 2 channels\nChannel positions                        : Front: L R\nSampling rate                            : 44.1 KHz\nCompression mode                         : Lossy\nStream size                              : 5.19 MiB (4%)\nTitle                                    : IsoMedia File Produced by Google, 5-11-2011\nEncoded date                             : UTC 2013-04-15 13:13:14\nTagged date                              : UTC 2013-04-15 13:13:18\n\nShared By Sbyky\n[IMG]http://yuq.me/users/18/139/0aq32UMZvX.gif[/IMG]\n[IMG]http://yuq.me/users/18/139/bQg62viaEG.gif[/IMG]","torrent":{"xt":"urn:btih:0396724a13239f70e5561bae4072e5306c377d61","amp;dn":"Calvin+Harris+Ft.+Ellie+Goulding+-+I+Need+Your+Love+%5BMusic+Video","amp;tr":["udp%3A%2F%2Ftracker.openbittorrent.com%3A80","udp%3A%2F%2Fopen.demonii.com%3A1337","udp%3A%2F%2Ftracker.coppersurfer.tk%3A6969","udp%3A%2F%2Fexodus.desync.com%3A6969"],"infoHash":"0396724a13239f70e5561bae4072e5306c377d61","infoHashBuffer":{"type":"Buffer","data":[3,150,114,74,19,35,159,112,229,86,27,174,64,114,229,48,108,55,125,97]},"announce":[],"urlList":[]}}